<?xml version="1.0" encoding="utf-8"?>
<!-- Generator: Adobe Illustrator 25.2.1, SVG Export Plug-In . SVG Version: 6.00 Build 0)  -->
<svg version="1.1" id="Capa_1" xmlns="http://www.w3.org/2000/svg" xmlns:xlink="http://www.w3.org/1999/xlink" x="0px" y="0px"
	 viewBox="0 0 78.5 26" enable-background="new 0 0 78.5 26" xml:space="preserve" width="80" height="25" shape-rendering="geometricPrecision">
<g>
	<g>
		<path fill="#34328D" d="M25.3,22.8c-0.1,0.2-0.3,0.4-0.5,0.5c-0.2,0.1-0.5,0.2-0.8,0.2h-0.9v-2.9h0.9c0.3,0,0.6,0.1,0.8,0.2
			c0.2,0.1,0.4,0.3,0.5,0.5c0.1,0.2,0.2,0.5,0.2,0.8C25.4,22.3,25.4,22.6,25.3,22.8z M24.7,22.8c0.2-0.2,0.3-0.5,0.3-0.8
			c0-0.4-0.1-0.6-0.3-0.8c-0.2-0.2-0.5-0.3-0.9-0.3h-0.5v2.2h0.5C24.2,23.1,24.5,23,24.7,22.8z"/>
		<path fill="#34328D" d="M27.2,20.6v2.9h-0.4v-2.9H27.2z"/>
		<path fill="#34328D" d="M30.8,20.8c0.2,0.2,0.4,0.4,0.5,0.7h-0.4c-0.1-0.2-0.2-0.3-0.4-0.4c-0.2-0.1-0.4-0.1-0.6-0.1
			c-0.2,0-0.4,0.1-0.5,0.1c-0.2,0.1-0.3,0.2-0.4,0.4c-0.1,0.2-0.1,0.4-0.1,0.6c0,0.2,0.1,0.4,0.2,0.6s0.2,0.3,0.4,0.4
			c0.2,0.1,0.4,0.1,0.6,0.1c0.2,0,0.3,0,0.5-0.1c0.2-0.1,0.3-0.2,0.4-0.3c0.1-0.1,0.2-0.3,0.2-0.5h-1.1V22h1.5v0.4
			c0,0.2-0.1,0.4-0.2,0.6c-0.1,0.2-0.3,0.3-0.5,0.4c-0.2,0.1-0.4,0.2-0.7,0.2c-0.3,0-0.5-0.1-0.8-0.2c-0.2-0.1-0.4-0.3-0.5-0.5
			c-0.1-0.2-0.2-0.5-0.2-0.8c0-0.3,0.1-0.5,0.2-0.8c0.1-0.2,0.3-0.4,0.5-0.5c0.2-0.1,0.5-0.2,0.8-0.2C30.3,20.5,30.6,20.6,30.8,20.8
			z"/>
		<path fill="#34328D" d="M33.1,20.6v2.9h-0.4v-2.9H33.1z"/>
		<path fill="#34328D" d="M36.3,20.6v0.3h-0.8v2.6h-0.4v-2.6h-0.8v-0.3H36.3z"/>
		<path fill="#34328D" d="M39.3,22.8H38l-0.2,0.7h-0.4l1.1-2.9h0.4l1.1,2.9h-0.4L39.3,22.8z M39.2,22.5l-0.5-1.5l-0.5,1.5H39.2z"/>
		<path fill="#34328D" d="M41.5,23.2h1.1v0.3h-1.4v-2.9h0.4L41.5,23.2L41.5,23.2z"/>
		<path fill="#34328D" d="M30.8,10.9v6.8h-1.7v-4.3l-1.5,4.3h-1.5l-1.5-4.3v4.3h-1.7v-6.8H25l1.9,4.7l1.8-4.7H30.8z"/>
		<path fill="#34328D" d="M36.7,11.2c0.5,0.3,1,0.7,1.3,1.2c0.3,0.5,0.5,1.1,0.5,1.8c0,0.7-0.2,1.3-0.5,1.8c-0.3,0.5-0.7,1-1.3,1.2
			c-0.5,0.3-1.1,0.4-1.8,0.4c-0.6,0-1.2-0.1-1.8-0.4c-0.5-0.3-1-0.7-1.3-1.2c-0.3-0.5-0.5-1.1-0.5-1.8c0-0.7,0.2-1.3,0.5-1.8
			c0.3-0.5,0.7-1,1.3-1.2s1.1-0.4,1.8-0.4C35.6,10.7,36.2,10.9,36.7,11.2z M33.7,12.8c-0.3,0.4-0.5,0.8-0.5,1.4
			c0,0.6,0.2,1.1,0.5,1.4c0.3,0.4,0.8,0.5,1.3,0.5s1-0.2,1.3-0.5c0.3-0.4,0.5-0.8,0.5-1.4c0-0.6-0.2-1.1-0.5-1.4
			c-0.3-0.4-0.8-0.5-1.3-0.5S34,12.4,33.7,12.8z"/>
		<path fill="#34328D" d="M45.3,17.6h-1.7l-2.8-4.2v4.2h-1.7v-6.8h1.7l2.8,4.2v-4.2h1.7V17.6z"/>
		<path fill="#34328D" d="M47.9,12.1v1.4h2.4v1.2h-2.4v1.5h2.6v1.3h-4.3v-6.8h4.3v1.3H47.9z"/>
		<path fill="#34328D" d="M57.1,16c-0.3,0.5-0.7,0.9-1.3,1.2c-0.5,0.3-1.2,0.4-1.9,0.4h-2.6v-6.8h2.6c0.8,0,1.4,0.1,1.9,0.4
			c0.5,0.3,1,0.7,1.2,1.2c0.3,0.5,0.4,1.1,0.4,1.8C57.5,14.9,57.3,15.5,57.1,16z M55.3,15.6c0.4-0.4,0.5-0.8,0.5-1.4
			c0-0.6-0.2-1.1-0.5-1.4c-0.4-0.3-0.9-0.5-1.5-0.5h-0.8v3.9h0.8C54.4,16.2,54.9,16,55.3,15.6z"/>
		<path fill="#34328D" d="M59.9,12.1v1.4h2.4v1.2h-2.4v1.5h2.6v1.3h-4.3v-6.8h4.3v1.3H59.9z"/>
		<path fill="#34328D" d="M66.8,17.6l-1.5-2.6h-0.4v2.6h-1.7v-6.8h2.9c0.5,0,1,0.1,1.4,0.3c0.4,0.2,0.7,0.4,0.8,0.8
			c0.2,0.3,0.3,0.7,0.3,1.1c0,0.5-0.2,0.9-0.4,1.3c-0.3,0.4-0.7,0.6-1.2,0.7l1.7,2.7H66.8L66.8,17.6z M64.9,13.9h1
			c0.3,0,0.6-0.1,0.7-0.2c0.2-0.1,0.2-0.4,0.2-0.7c0-0.3-0.1-0.5-0.2-0.6c-0.2-0.1-0.4-0.2-0.7-0.2h-1V13.9z"/>
		<path fill="#34328D" d="M74.3,11.2c0.5,0.3,1,0.7,1.3,1.2s0.5,1.1,0.5,1.8c0,0.7-0.2,1.3-0.5,1.8s-0.7,1-1.3,1.2
			c-0.5,0.3-1.1,0.4-1.8,0.4c-0.7,0-1.2-0.1-1.8-0.4c-0.5-0.3-1-0.7-1.3-1.2S69,14.9,69,14.2c0-0.7,0.2-1.3,0.5-1.8s0.7-1,1.3-1.2
			s1.1-0.4,1.8-0.4C73.2,10.7,73.8,10.9,74.3,11.2z M71.2,12.8c-0.3,0.4-0.5,0.8-0.5,1.4c0,0.6,0.2,1.1,0.5,1.4
			c0.3,0.4,0.8,0.5,1.3,0.5c0.5,0,1-0.2,1.3-0.5c0.3-0.4,0.5-0.8,0.5-1.4c0-0.6-0.2-1.1-0.5-1.4c-0.3-0.4-0.8-0.5-1.3-0.5
			C72,12.2,71.5,12.4,71.2,12.8z"/>
		<path fill="#34328D" d="M27.9,8.4C27.7,8.7,27.4,9,27,9.1c-0.4,0.2-0.8,0.3-1.3,0.3c-0.8,0-1.4-0.2-1.9-0.6
			C23.3,8.5,23,7.9,23,7.3h1.8c0,0.3,0.1,0.4,0.3,0.6c0.2,0.1,0.4,0.2,0.6,0.2c0.2,0,0.4-0.1,0.5-0.2c0.1-0.1,0.2-0.3,0.2-0.5
			c0-0.2-0.1-0.3-0.2-0.4c-0.1-0.1-0.3-0.2-0.4-0.3c-0.2-0.1-0.4-0.1-0.7-0.3c-0.5-0.1-0.8-0.3-1.1-0.4c-0.3-0.1-0.5-0.4-0.7-0.6
			c-0.2-0.3-0.3-0.6-0.3-1.1c0-0.4,0.1-0.7,0.3-1c0.2-0.3,0.5-0.5,0.9-0.7c0.4-0.1,0.8-0.1,1.3-0.1c0.8,0,1.4,0.2,1.8,0.5
			C27.7,3.3,28,3.8,28,4.4h-1.8c0-0.2-0.1-0.4-0.2-0.5c-0.1-0.1-0.3-0.2-0.5-0.2c-0.2,0-0.4,0.1-0.5,0.1c-0.1,0.1-0.2,0.3-0.2,0.4
			c0,0.1,0.1,0.3,0.2,0.4C25,4.8,25.2,4.9,25.4,5C25.5,5,25.7,5.1,26,5.2c0.5,0.1,0.8,0.3,1.1,0.4c0.3,0.1,0.5,0.4,0.7,0.6
			c0.2,0.3,0.3,0.6,0.3,1.1C28.1,7.8,28,8.1,27.9,8.4z"/>
		<path fill="#34328D" d="M30.5,2.5v4c0,0.4,0.1,0.8,0.3,1c0.2,0.2,0.5,0.4,0.9,0.4c0.4,0,0.7-0.1,0.9-0.4c0.2-0.2,0.3-0.6,0.3-1v-4
			h1.7v4c0,0.7-0.1,1.2-0.4,1.6c-0.2,0.4-0.6,0.8-1.1,1c-0.5,0.2-0.9,0.3-1.5,0.3c-0.5,0-1.1-0.1-1.5-0.3c-0.4-0.2-0.8-0.6-1-1
			c-0.2-0.4-0.4-1-0.4-1.6V2.5H30.5z"/>
		<path fill="#34328D" d="M37.1,7v2.4h-1.7V2.5h2.7c0.8,0,1.5,0.2,1.9,0.6c0.4,0.4,0.6,1,0.6,1.6c0,0.4-0.1,0.8-0.3,1.1
			c-0.2,0.3-0.5,0.6-0.8,0.8C39.1,6.8,38.6,7,38.1,7H37.1L37.1,7z M38.9,4.8c0-0.6-0.3-0.9-1-0.9h-0.8v1.8H38
			C38.6,5.6,38.9,5.3,38.9,4.8z"/>
		<path fill="#34328D" d="M42.9,3.8v1.4h2.4v1.2h-2.4V8h2.6v1.3h-4.3V2.5h4.3v1.3H42.9L42.9,3.8z"/>
		<path fill="#34328D" d="M49.8,9.4l-1.5-2.6h-0.4v2.6h-1.7V2.5h2.9c0.5,0,1,0.1,1.4,0.3c0.4,0.2,0.7,0.4,0.8,0.8
			c0.2,0.3,0.3,0.7,0.3,1.1c0,0.5-0.2,0.9-0.4,1.3c-0.3,0.4-0.7,0.6-1.2,0.7l1.7,2.7H49.8z M48,5.7h1c0.3,0,0.6-0.1,0.7-0.2
			c0.2-0.1,0.2-0.4,0.2-0.7c0-0.3-0.1-0.5-0.2-0.6C49.6,4,49.3,3.9,49,3.9h-1V5.7z"/>
		<path fill="#34328D" d="M7.9,18.6v3.5c0,0.7,0.6,1.4,1.4,1.4h9c0.8,0,1.4-0.6,1.4-1.4V3.8c0-0.8-0.6-1.4-1.4-1.4h-9
			C8.6,2.4,7.9,3,7.9,3.8v3.7h0.6h0.1V3.8c0-0.4,0.3-0.7,0.7-0.7h2.1l0.3,1.1c0,0.1,0.2,0.3,0.3,0.3h3.4c0.2,0,0.3-0.1,0.3-0.3
			l0.3-1.1h2.1c0.4,0,0.7,0.3,0.7,0.7v18.3c0,0.4-0.3,0.7-0.7,0.7h-9c-0.4,0-0.7-0.3-0.7-0.7v-3.5H8.5H7.9z M15.4,3.1l-0.2,0.7h-2.9
			l-0.2-0.7H15.4z"/>
		<path fill-rule="evenodd" clip-rule="evenodd" fill="#34328D" d="M16,8.8v8.1c0,1-0.8,1.8-1.8,1.8H8.5H7.8H3.6
			c-0.2,0-0.4-0.2-0.4-0.4v-2.4H2.8c-0.2,0-0.4-0.2-0.4-0.4v-2.8c0-0.2,0.2-0.4,0.4-0.4h0.3V7.8c0-0.2,0.2-0.4,0.4-0.4h4.3h0.7h6
			C15.3,7.4,16,8,16,8.8z M6,13.4C6,13.2,5.9,13,5.7,13H3.2v2.1h2.5C5.9,15.1,6,15,6,14.8V13.4z M14.6,9.5c0.4,0,0.7-0.3,0.7-0.7
			S15,8.1,14.6,8.1H3.9v1.4H14.6z M14.2,17.9c0.6,0,1.1-0.5,1.1-1v-0.4c-0.1,0-0.2,0-0.3,0c-0.3-0.1-0.5-0.4-0.4-0.7
			c0.1-0.2,0.2-0.3,0.4-0.4V15c0-0.1-0.1-0.1-0.1-0.1H14c-0.2,0.5-0.6,1-1.2,1.3v0.7c0,0.1,0.1,0.1,0.1,0.1h0.3
			c0.1-0.3,0.4-0.4,0.7-0.4c0.3,0.1,0.5,0.4,0.4,0.7c-0.1,0.3-0.4,0.4-0.7,0.4c-0.2-0.1-0.3-0.2-0.4-0.4H13c-0.2,0-0.4-0.2-0.4-0.4
			v-0.6c-0.3,0.1-0.5,0.2-0.8,0.2v1.3c0,0,0,0.1,0,0.1H14.2z M15.1,16.2c0.1,0,0.1,0,0.2,0v-0.4c0,0-0.1,0-0.2,0
			c-0.2,0-0.3,0.1-0.3,0.3S15,16.2,15.1,16.2z M15.3,15.4C15.3,15.4,15.3,15.4,15.3,15.4l0-1.3h-1.1c0,0.2,0,0.4-0.1,0.5h0.8
			c0.2,0,0.4,0.2,0.4,0.4V15.4z M14.2,13.8h1.1v-1.3c0,0,0,0,0,0v0.4c0,0.2-0.2,0.4-0.4,0.4h-0.8C14.2,13.5,14.2,13.7,14.2,13.8z
			 M15.1,12.2c0.1,0,0.1,0,0.2,0v-0.4c0,0-0.1,0-0.2,0c-0.2,0-0.3,0.1-0.3,0.3C14.9,12.1,15,12.2,15.1,12.2z M15.3,11.5
			C15.3,11.5,15.3,11.5,15.3,11.5l0-1.5c-0.2,0.1-0.5,0.2-0.7,0.2h-2.8v1.2c0.3,0,0.5,0.1,0.8,0.2V11c0-0.2,0.2-0.4,0.4-0.4h0.3
			c0.1-0.3,0.4-0.4,0.7-0.4c0.3,0.1,0.5,0.4,0.4,0.7c-0.1,0.3-0.4,0.4-0.7,0.4c-0.2-0.1-0.3-0.2-0.4-0.4H13c-0.1,0-0.1,0.1-0.1,0.1
			v0.7c0.5,0.3,1,0.7,1.2,1.3h0.8c0.1,0,0.1-0.1,0.1-0.1v-0.4c-0.3-0.1-0.5-0.4-0.4-0.7C14.7,11.5,15,11.4,15.3,11.5z M11.5,11.4
			v-1.2H3.9v2.1h1.8c0.6,0,1.1,0.5,1.1,1v0.5h2.3c0-0.2,0-0.4,0.1-0.5H8.4c-0.2,0-0.4-0.2-0.4-0.4v-0.4c-0.3-0.1-0.5-0.4-0.4-0.7
			c0.1-0.3,0.4-0.5,0.7-0.4c0.3,0.1,0.5,0.4,0.4,0.7c-0.1,0.2-0.2,0.3-0.4,0.4v0.4C8.3,13,8.3,13,8.4,13h0.8c0.2-0.5,0.6-1,1.2-1.3
			V11c0-0.1-0.1-0.1-0.1-0.1H10c-0.1,0.3-0.4,0.4-0.7,0.4c-0.3-0.1-0.5-0.4-0.4-0.7c0.1-0.3,0.4-0.4,0.7-0.4
			c0.2,0.1,0.3,0.2,0.4,0.4h0.3c0.2,0,0.4,0.2,0.4,0.4v0.6C11,11.5,11.2,11.4,11.5,11.4z M6.7,14.8v-0.7h2.3c0,0.2,0,0.4,0.1,0.5
			H8.4C8.2,14.6,8,14.8,8,15v0.4c-0.2,0.1-0.3,0.2-0.4,0.4c-0.1,0.3,0.1,0.6,0.4,0.7c0.3,0.1,0.6-0.1,0.7-0.4
			c0.1-0.3-0.1-0.6-0.4-0.7V15c0-0.1,0.1-0.1,0.1-0.1h0.8c0.2,0.6,0.6,1,1.2,1.3v0.7c0,0.1-0.1,0.1-0.1,0.1H10
			c-0.1-0.2-0.2-0.3-0.4-0.4C9.3,16.5,9,16.7,8.9,17c-0.1,0.3,0.1,0.6,0.4,0.7c0.3,0.1,0.6-0.1,0.7-0.4h0.3c0.2,0,0.4-0.2,0.4-0.4
			v-0.6c0.3,0.1,0.5,0.1,0.8,0.2v1.3c0,0,0,0.1,0,0.1H3.9v-2.1h1.8C6.3,15.8,6.7,15.3,6.7,14.8z M4.6,13.7h0.7v0.7H4.6V13.7z
			 M8.1,12.2c-0.2,0-0.3-0.1-0.3-0.3c0-0.1,0.1-0.3,0.3-0.3s0.3,0.1,0.3,0.3C8.4,12.1,8.3,12.2,8.1,12.2z M9.7,10.7
			c0,0.1-0.1,0.3-0.3,0.3s-0.3-0.1-0.3-0.3c0-0.1,0.1-0.3,0.3-0.3S9.7,10.6,9.7,10.7z M13.5,10.7c0-0.1,0.1-0.3,0.3-0.3
			s0.3,0.1,0.3,0.3c0,0.1-0.1,0.3-0.3,0.3S13.5,10.9,13.5,10.7z M13.5,17.1c0-0.1,0.1-0.3,0.3-0.3S14,17,14,17.1
			c0,0.1-0.1,0.3-0.3,0.3S13.5,17.3,13.5,17.1z M9.7,17.1c0,0.1-0.1,0.3-0.3,0.3s-0.3-0.1-0.3-0.3c0-0.1,0.1-0.3,0.3-0.3
			S9.7,17,9.7,17.1z M8.1,15.6c0.2,0,0.3,0.1,0.3,0.3s-0.1,0.3-0.3,0.3s-0.3-0.1-0.3-0.3S8,15.6,8.1,15.6z M9.3,13.9
			c0-1.2,1-2.3,2.3-2.3c1.3,0,2.3,1,2.3,2.3c0,1.2-1,2.3-2.3,2.3C10.4,16.2,9.3,15.2,9.3,13.9z M12,13.1h-0.7
			c-0.1,0-0.2,0.1-0.2,0.1v0.3c0,0.1,0.1,0.2,0.2,0.2H12c0.3,0,0.5,0.2,0.5,0.5v0.3c0,0.3-0.2,0.5-0.5,0.5h-0.2v0.3
			c0,0.1-0.1,0.1-0.2,0.1c-0.1,0-0.2-0.1-0.2-0.2V15h-0.2c-0.3,0-0.5-0.2-0.5-0.5c0-0.1,0.1-0.1,0.2-0.1c0.1,0,0.2,0.1,0.2,0.2
			c0,0.1,0.1,0.2,0.2,0.2h0.7c0.1,0,0.2-0.1,0.2-0.1v-0.3c0-0.1-0.1-0.2-0.2-0.2h-0.7c-0.3,0-0.5-0.2-0.5-0.5v-0.3
			c0-0.3,0.2-0.5,0.5-0.5h0.2v-0.3c0-0.1,0.1-0.1,0.2-0.1c0.1,0,0.2,0.1,0.2,0.2v0.3H12c0.3,0,0.5,0.2,0.5,0.5
			c0,0.1-0.1,0.1-0.2,0.1s-0.2-0.1-0.2-0.2C12.2,13.2,12.1,13.1,12,13.1z"/>
		
			<linearGradient id="SVGID_1_" gradientUnits="userSpaceOnUse" x1="3.2749" y1="20.2562" x2="15.48" y2="9.5207" gradientTransform="matrix(1 0 0 -1 0 28)">
			<stop  offset="0" style="stop-color:#4BCFA8"/>
			<stop  offset="1" style="stop-color:#0092FC"/>
		</linearGradient>
		<path fill-rule="evenodd" clip-rule="evenodd" fill="url(#SVGID_1_)" d="M16,8.8v8.1c0,1-0.8,1.8-1.8,1.8H8.5H7.8H3.6
			c-0.2,0-0.4-0.2-0.4-0.4v-2.4H2.8c-0.2,0-0.4-0.2-0.4-0.4v-2.8c0-0.2,0.2-0.4,0.4-0.4h0.3V7.8c0-0.2,0.2-0.4,0.4-0.4h4.3h0.7h6
			C15.3,7.4,16,8,16,8.8z M6,13.4C6,13.2,5.9,13,5.7,13H3.2v2.1h2.5C5.9,15.1,6,15,6,14.8V13.4z M14.6,9.5c0.4,0,0.7-0.3,0.7-0.7
			S15,8.1,14.6,8.1H3.9v1.4H14.6z M14.2,17.9c0.6,0,1.1-0.5,1.1-1v-0.4c-0.1,0-0.2,0-0.3,0c-0.3-0.1-0.5-0.4-0.4-0.7
			c0.1-0.2,0.2-0.3,0.4-0.4V15c0-0.1-0.1-0.1-0.1-0.1H14c-0.2,0.5-0.6,1-1.2,1.3v0.7c0,0.1,0.1,0.1,0.1,0.1h0.3
			c0.1-0.3,0.4-0.4,0.7-0.4c0.3,0.1,0.5,0.4,0.4,0.7c-0.1,0.3-0.4,0.4-0.7,0.4c-0.2-0.1-0.3-0.2-0.4-0.4H13c-0.2,0-0.4-0.2-0.4-0.4
			v-0.6c-0.3,0.1-0.5,0.2-0.8,0.2v1.3c0,0,0,0.1,0,0.1H14.2z M15.1,16.2c0.1,0,0.1,0,0.2,0v-0.4c0,0-0.1,0-0.2,0
			c-0.2,0-0.3,0.1-0.3,0.3S15,16.2,15.1,16.2z M15.3,15.4C15.3,15.4,15.3,15.4,15.3,15.4l0-1.3h-1.1c0,0.2,0,0.4-0.1,0.5h0.8
			c0.2,0,0.4,0.2,0.4,0.4V15.4z M14.2,13.8h1.1v-1.3c0,0,0,0,0,0v0.4c0,0.2-0.2,0.4-0.4,0.4h-0.8C14.2,13.5,14.2,13.7,14.2,13.8z
			 M15.1,12.2c0.1,0,0.1,0,0.2,0v-0.4c0,0-0.1,0-0.2,0c-0.2,0-0.3,0.1-0.3,0.3C14.9,12.1,15,12.2,15.1,12.2z M15.3,11.5
			C15.3,11.5,15.3,11.5,15.3,11.5l0-1.5c-0.2,0.1-0.5,0.2-0.7,0.2h-2.8v1.2c0.3,0,0.5,0.1,0.8,0.2V11c0-0.2,0.2-0.4,0.4-0.4h0.3
			c0.1-0.3,0.4-0.4,0.7-0.4c0.3,0.1,0.5,0.4,0.4,0.7c-0.1,0.3-0.4,0.4-0.7,0.4c-0.2-0.1-0.3-0.2-0.4-0.4H13c-0.1,0-0.1,0.1-0.1,0.1
			v0.7c0.5,0.3,1,0.7,1.2,1.3h0.8c0.1,0,0.1-0.1,0.1-0.1v-0.4c-0.3-0.1-0.5-0.4-0.4-0.7C14.7,11.5,15,11.4,15.3,11.5z M11.5,11.4
			v-1.2H3.9v2.1h1.8c0.6,0,1.1,0.5,1.1,1v0.5h2.3c0-0.2,0-0.4,0.1-0.5H8.4c-0.2,0-0.4-0.2-0.4-0.4v-0.4c-0.3-0.1-0.5-0.4-0.4-0.7
			c0.1-0.3,0.4-0.5,0.7-0.4c0.3,0.1,0.5,0.4,0.4,0.7c-0.1,0.2-0.2,0.3-0.4,0.4v0.4C8.3,13,8.3,13,8.4,13h0.8c0.2-0.5,0.6-1,1.2-1.3
			V11c0-0.1-0.1-0.1-0.1-0.1H10c-0.1,0.3-0.4,0.4-0.7,0.4c-0.3-0.1-0.5-0.4-0.4-0.7c0.1-0.3,0.4-0.4,0.7-0.4
			c0.2,0.1,0.3,0.2,0.4,0.4h0.3c0.2,0,0.4,0.2,0.4,0.4v0.6C11,11.5,11.2,11.4,11.5,11.4z M6.7,14.8v-0.7h2.3c0,0.2,0,0.4,0.1,0.5
			H8.4C8.2,14.6,8,14.8,8,15v0.4c-0.2,0.1-0.3,0.2-0.4,0.4c-0.1,0.3,0.1,0.6,0.4,0.7c0.3,0.1,0.6-0.1,0.7-0.4
			c0.1-0.3-0.1-0.6-0.4-0.7V15c0-0.1,0.1-0.1,0.1-0.1h0.8c0.2,0.6,0.6,1,1.2,1.3v0.7c0,0.1-0.1,0.1-0.1,0.1H10
			c-0.1-0.2-0.2-0.3-0.4-0.4C9.3,16.5,9,16.7,8.9,17c-0.1,0.3,0.1,0.6,0.4,0.7c0.3,0.1,0.6-0.1,0.7-0.4h0.3c0.2,0,0.4-0.2,0.4-0.4
			v-0.6c0.3,0.1,0.5,0.1,0.8,0.2v1.3c0,0,0,0.1,0,0.1H3.9v-2.1h1.8C6.3,15.8,6.7,15.3,6.7,14.8z M4.6,13.7h0.7v0.7H4.6V13.7z
			 M8.1,12.2c-0.2,0-0.3-0.1-0.3-0.3c0-0.1,0.1-0.3,0.3-0.3s0.3,0.1,0.3,0.3C8.4,12.1,8.3,12.2,8.1,12.2z M9.7,10.7
			c0,0.1-0.1,0.3-0.3,0.3s-0.3-0.1-0.3-0.3c0-0.1,0.1-0.3,0.3-0.3S9.7,10.6,9.7,10.7z M13.5,10.7c0-0.1,0.1-0.3,0.3-0.3
			s0.3,0.1,0.3,0.3c0,0.1-0.1,0.3-0.3,0.3S13.5,10.9,13.5,10.7z M13.5,17.1c0-0.1,0.1-0.3,0.3-0.3S14,17,14,17.1
			c0,0.1-0.1,0.3-0.3,0.3S13.5,17.3,13.5,17.1z M9.7,17.1c0,0.1-0.1,0.3-0.3,0.3s-0.3-0.1-0.3-0.3c0-0.1,0.1-0.3,0.3-0.3
			S9.7,17,9.7,17.1z M8.1,15.6c0.2,0,0.3,0.1,0.3,0.3s-0.1,0.3-0.3,0.3s-0.3-0.1-0.3-0.3S8,15.6,8.1,15.6z M9.3,13.9
			c0-1.2,1-2.3,2.3-2.3c1.3,0,2.3,1,2.3,2.3c0,1.2-1,2.3-2.3,2.3C10.4,16.2,9.3,15.2,9.3,13.9z M12,13.1h-0.7
			c-0.1,0-0.2,0.1-0.2,0.1v0.3c0,0.1,0.1,0.2,0.2,0.2H12c0.3,0,0.5,0.2,0.5,0.5v0.3c0,0.3-0.2,0.5-0.5,0.5h-0.2v0.3
			c0,0.1-0.1,0.1-0.2,0.1c-0.1,0-0.2-0.1-0.2-0.2V15h-0.2c-0.3,0-0.5-0.2-0.5-0.5c0-0.1,0.1-0.1,0.2-0.1c0.1,0,0.2,0.1,0.2,0.2
			c0,0.1,0.1,0.2,0.2,0.2h0.7c0.1,0,0.2-0.1,0.2-0.1v-0.3c0-0.1-0.1-0.2-0.2-0.2h-0.7c-0.3,0-0.5-0.2-0.5-0.5v-0.3
			c0-0.3,0.2-0.5,0.5-0.5h0.2v-0.3c0-0.1,0.1-0.1,0.2-0.1c0.1,0,0.2,0.1,0.2,0.2v0.3H12c0.3,0,0.5,0.2,0.5,0.5
			c0,0.1-0.1,0.1-0.2,0.1s-0.2-0.1-0.2-0.2C12.2,13.2,12.1,13.1,12,13.1z"/>
	</g>
</g>
</svg>
